<?xml version="1.0" encoding="UTF-8"?>
<svg width="65px" height="159px" viewBox="0 0 65 159" version="1.1" xmlns="http://www.w3.org/2000/svg" xmlns:xlink="http://www.w3.org/1999/xlink">
    <!-- Generator: Sketch 44.1 (41455) - http://www.bohemiancoding.com/sketch -->
    <title>Page 1</title>
    <desc>Created with Sketch.</desc>
    <defs>
        <polygon id="path-1" points="0 0.000334178364 0 158.318 64.33047 158.318 64.33047 0.000334178364"></polygon>
    </defs>
    <g id="Page-1" stroke="none" stroke-width="1" fill="none" fill-rule="evenodd">
        <g id="Artboard">
            <g id="Page-1">
                <mask id="mask-2" fill="white">
                    <use xlink:href="#path-1"></use>
                </mask>
                <g id="Clip-2"></g>
                <path d="M33.6924,87.93 C33.6924,86.53 33.5924,85.13 33.4924,83.63 C33.3924,82.329 32.7924,80.829 34.2934,80.829 C38.5924,80.829 37.9924,87.829 33.6924,87.93 M30.8924,41.33 C27.3924,42.13 20.4924,40.63 23.5924,46.13 C24.5924,47.93 25.7924,49.53 27.8924,48.73 C29.0924,48.23 32.5924,45.03 31.3924,48.03 C29.5924,52.53 25.7924,56.03 23.5924,60.23 C22.4924,62.33 22.8924,64.13 24.7924,65.63 C26.4924,67.03 28.3924,65.63 29.8924,64.43 C29.6924,67.33 29.6924,70.13 29.4924,73.03 C29.3924,74.83 29.2924,76.73 29.1924,78.53 C29.0924,80.63 28.1924,82.13 27.4924,84.03 C27.0924,85.13 26.6924,86.23 26.6924,87.329 C26.6924,88.329 26.9924,89.23 27.4924,90.13 C27.8924,90.73 28.8924,91.13 28.5924,91.93 C28.2924,92.63 26.1924,92.93 25.5924,93.03 C23.5924,93.43 21.6924,94.03 19.7924,94.93 C19.6924,86.03 19.6924,77.13 19.5924,68.23 C19.5924,61.63 19.4924,55.13 19.4924,48.53 C19.4924,44.73 18.8924,40.43 19.3924,36.63 C19.5924,35.53 19.9924,35.13 20.6924,34.13 C22.7924,31.13 24.8924,28.23 26.9924,25.33 C28.4924,23.33 36.9924,12.23 38.7934,13.43 C39.2934,13.83 38.4924,16.43 38.3924,16.73 C38.1924,17.43 38.0924,18.53 37.5924,19.13 C36.8924,19.93 36.9924,19.63 36.0924,19.53 C34.6924,19.33 34.0924,19.13 33.0924,20.73 C31.9924,22.43 32.8924,23.33 33.7934,24.83 C34.5924,26.13 35.1924,27.73 34.1924,29.03 C33.2934,30.23 31.7924,30.83 31.0924,29.33 C30.7924,28.53 31.4924,27.33 30.5924,26.63 C29.5924,25.93 28.6924,27.23 28.0924,27.93 C26.6924,29.53 22.9924,32.83 23.3924,35.23 C23.8924,38.23 30.2924,41.93 30.9924,37.53 C31.1924,36.03 30.7924,34.53 32.1924,33.43 C33.5924,32.33 34.3924,32.83 34.4924,34.33 C34.5924,37.53 34.2934,40.43 30.8924,41.33 M32.3924,53.83 C32.2924,54.73 31.7924,59.23 29.8924,57.63 C28.9924,56.83 30.3924,55.03 30.8924,54.43 C31.0924,54.13 32.5924,52.63 32.3924,53.83 M44.0924,24.83 C46.2934,24.93 44.5924,28.03 43.9924,29.03 C43.3924,30.23 41.3924,34.93 39.8924,35.13 C38.6924,35.23 38.8924,31.53 38.9924,30.53 C39.0924,29.33 39.2934,29.13 40.1924,28.13 C41.1924,26.93 42.5924,25.13 44.0924,24.83 M35.9924,75.83 C37.1924,74.23 41.0924,68.83 42.4924,72.53 C42.8924,73.73 42.9924,75.23 43.0924,76.53 C43.2934,78.23 43.3924,79.93 43.4924,81.53 C43.5924,83.23 44.1924,86.23 43.4924,87.73 C43.0924,88.53 42.4924,88.53 41.3924,88.73 C41.0924,88.829 39.3924,89.329 39.2934,89.23 C39.0924,88.93 40.0924,87.73 40.2934,87.43 C40.9924,86.13 41.5924,84.73 41.7934,83.329 C41.9924,81.63 41.7934,79.53 40.6924,78.03 C39.9924,77.13 39.0924,76.53 37.9924,76.23 C37.2934,76.13 35.9924,76.43 35.9924,75.83 M33.8924,141.93 C34.0924,143.73 30.5924,145.23 31.4924,146.63 C32.3924,148.03 34.4924,147.23 35.2934,146.53 C36.2934,145.73 37.1924,144.23 37.7934,143.13 C38.6924,141.53 38.1924,137.13 40.6924,137.829 C44.1924,138.829 42.0924,141.43 40.5924,143.13 C38.6924,145.13 36.8924,147.329 35.0924,149.43 C33.0924,151.93 31.2924,152.73 28.2924,150.63 C25.0924,148.329 27.6924,146.63 29.4924,144.43 C30.1924,143.53 30.7924,141.93 31.8924,141.43 C32.3924,141.03 34.1924,140.73 33.8924,141.93 M26.8924,5.83 C29.3924,6.53 22.8924,10.93 22.1924,11.53 C21.7924,8.23 23.0924,5.03 26.8924,5.83 M51.4924,108.03 C46.7934,106.53 41.5924,106.329 36.6924,106.23 C37.4924,103.93 37.1924,104.53 39.3924,104.43 C41.9924,104.23 43.8924,102.63 44.4924,100.13 C44.9924,97.829 44.0924,97.53 42.1924,97.43 C41.0924,97.43 37.9924,97.23 37.8924,95.63 C37.8924,93.63 48.0924,91.43 49.3924,91.13 C50.4924,90.93 53.0924,90.63 53.5924,92.23 C54.1924,94.329 48.4924,97.829 47.2934,98.63 C50.2934,98.23 53.2934,97.329 55.8924,95.93 C57.9924,94.73 61.8924,92.13 61.2934,89.23 C60.9924,87.63 59.4924,86.93 57.9924,86.63 C55.2934,86.13 50.1924,86.329 47.4924,87.63 L47.4924,81.73 C47.4924,79.33 47.0924,76.43 47.4924,74.13 C47.7934,72.23 49.5924,70.73 48.2934,68.73 C46.7934,66.33 43.4924,64.93 40.9924,66.23 C39.7934,66.83 35.0924,71.53 34.0924,70.03 C32.9924,68.33 35.7934,62.73 36.5924,61.53 C38.0924,59.13 39.7934,58.93 42.3924,58.83 C44.7934,58.73 46.2934,57.43 46.0924,55.03 C45.8924,53.43 45.0924,52.13 43.9924,51.03 C43.6924,50.73 41.5924,49.13 41.2934,49.43 C40.9924,49.73 41.3924,49.93 41.4924,50.43 C41.7934,52.03 42.4924,52.23 40.6924,53.23 C38.9924,54.13 36.9924,54.43 35.5924,55.73 C34.7934,53.23 38.5924,52.83 39.4924,51.13 C40.5924,49.03 38.7934,48.43 37.0924,48.03 C36.2934,47.83 33.3924,48.13 34.4924,46.43 C34.8924,45.83 36.5924,45.53 37.1924,45.33 C40.5924,43.93 43.9924,41.33 47.4924,40.63 C51.0924,39.93 49.3924,38.03 47.6924,36.03 C45.8924,33.93 46.9924,32.63 48.3924,30.83 C49.6924,29.03 51.4924,27.23 52.4924,25.23 C53.5924,22.93 52.3924,21.63 50.7934,20.13 C48.8924,18.43 47.4924,16.93 45.0924,19.03 C43.5924,20.33 42.5924,22.83 40.3924,22.33 C37.8924,21.83 39.6924,20.43 40.7934,19.33 C42.2934,17.73 44.1924,16.03 45.4924,14.23 C47.1924,11.83 47.4924,4.33 44.4924,2.53 C42.1924,1.03 42.0924,4.73 41.1924,6.33 C39.6924,8.83 37.2934,10.73 35.0924,12.53 C32.9924,14.33 31.0924,16.13 28.9924,17.93 C27.7924,18.93 26.6924,20.03 25.4924,21.03 C24.8924,21.63 23.7924,23.13 22.8924,23.13 C21.1924,23.13 21.1924,19.73 21.5924,18.63 C21.9924,17.33 24.0924,16.43 25.1924,15.53 C27.5924,13.63 31.1924,11.43 32.6924,8.73 C34.0924,6.33 31.3924,5.73 29.5924,4.83 C27.1924,3.63 25.2924,1.93 23.1924,0.43 C21.2924,-0.97 17.7924,1.33 16.8924,3.33 C16.2924,4.63 17.1924,5.13 17.5924,6.23 C18.0924,7.63 18.0924,9.53 18.0924,11.03 C18.0924,14.43 16.4924,16.13 13.2924,17.13 C12.3924,17.43 11.5924,17.53 10.6924,17.23 C9.0924,16.73 8.4924,15.13 7.0924,14.53 C5.2924,13.73 6.5924,17.73 6.7924,18.73 C7.2924,20.73 8.1924,25.63 10.6924,25.83 C12.8924,26.03 14.1924,22.63 16.0924,22.33 C16.7924,22.23 16.5924,22.13 16.6924,23.33 C16.6924,23.93 16.7924,24.73 16.5924,25.33 C16.2924,26.43 15.1924,27.83 14.5924,28.83 C12.0924,33.33 9.6924,37.73 7.1924,42.23 C5.5924,45.03 3.6924,47.83 2.4924,50.83 C1.2924,53.73 3.8924,54.93 4.3924,57.53 C4.7924,59.53 5.9924,62.33 7.4924,59.73 C9.7924,55.63 11.4924,50.93 13.4924,46.63 C13.7924,46.03 14.1924,44.33 14.7924,43.93 C14.2924,44.33 14.6924,51.23 14.6924,51.83 C14.5924,57.53 14.3924,63.23 14.2924,68.93 C14.0924,75.13 13.9924,81.23 13.7924,87.43 C13.6924,89.63 13.6924,91.829 13.5924,94.03 C13.5924,95.13 13.7924,96.73 13.4924,97.73 C13.0924,98.829 11.6924,99.63 10.3924,99.63 C8.5924,99.73 8.2924,97.829 6.7924,97.73 C5.5924,97.63 4.7924,98.93 4.2924,99.93 C2.8924,102.23 1.3924,106.829 3.8924,109.03 C5.6924,110.63 9.1924,107.53 10.7924,106.53 C11.4924,106.13 12.3924,105.23 13.1924,105.03 C14.5924,104.63 14.1924,104.829 14.8924,105.829 C15.0924,106.13 15.2924,106.829 15.4924,107.23 C16.0924,108.53 16.6924,109.829 17.1924,111.13 C17.3924,111.63 17.6924,112.93 18.1924,113.23 C19.1924,113.93 19.0924,112.63 19.1924,111.73 C19.3924,110.13 19.5924,108.43 19.6924,106.829 C19.7924,105.829 19.2924,102.829 19.7924,101.93 C20.1924,101.23 21.6924,101.03 22.3924,100.73 C24.2924,100.03 26.1924,99.329 28.0924,98.53 C28.6924,98.23 29.8924,97.329 30.5924,97.329 C31.3924,97.329 30.9924,97.23 31.3924,97.829 C31.7924,98.329 31.6924,99.53 31.9924,100.23 C32.2924,100.829 32.9924,101.329 33.1924,101.829 C33.6924,103.13 32.6924,105.329 31.5924,106.13 C30.6924,106.829 29.3924,106.63 28.1924,106.63 C27.3924,106.63 24.7924,106.329 24.1924,106.93 C23.1924,107.93 29.4924,107.63 30.1924,107.93 C29.8924,107.73 20.1924,119.73 19.4924,120.63 C17.6924,122.53 15.6924,125.13 13.2924,126.329 C9.5924,128.23 12.9924,121.13 12.0924,120.03 C12.1924,120.23 7.1924,126.73 6.8924,127.13 C4.6924,130.23 2.1924,133.43 0.5924,136.829 C-0.5076,139.23 -0.3076,143.63 3.1924,144.03 C6.1924,144.329 7.8924,140.23 9.1924,138.23 C13.5924,131.93 19.3924,126.329 24.7924,120.829 C25.2924,120.329 26.2924,118.93 26.1924,120.63 C26.0924,121.829 24.3924,122.329 25.7924,123.43 C26.8924,124.23 29.5924,123.63 30.6924,123.63 C32.4924,123.53 32.7924,123.03 32.5924,124.73 C32.3924,125.73 32.1924,126.53 32.1924,127.53 C32.1924,128.93 32.5924,129.13 31.3924,129.73 C30.3924,130.23 27.7924,130.43 27.8924,128.93 C27.8924,128.03 31.7924,125.63 29.5924,125.829 C28.7924,125.93 27.1924,127.329 26.5924,127.73 C24.7924,128.93 19.5924,132.329 20.1924,135.03 C20.7924,137.73 26.1924,135.23 27.8924,134.63 C28.8924,134.23 30.8924,133.03 31.8924,132.93 C32.6924,132.93 32.4924,132.93 32.9924,133.63 C33.1924,133.93 33.2934,134.43 33.3924,134.73 C33.6924,136.13 33.6924,136.03 32.8924,136.329 C32.1924,136.63 31.0924,136.13 30.2924,136.43 C29.4924,136.73 29.0924,137.63 28.6924,138.329 C27.7924,139.73 26.8924,141.13 25.8924,142.43 C24.1924,144.53 18.4924,147.93 21.9924,151.329 C23.2924,152.63 24.7924,151.23 26.2924,151.73 C28.1924,152.329 29.4924,155.13 30.3924,156.63 C32.8924,160.93 35.9924,155.93 37.1924,153.63 C39.2934,149.23 43.0924,145.73 46.5924,142.53 C48.0924,141.23 49.8924,140.829 49.6924,138.53 C49.5924,137.63 49.2934,136.63 48.6924,135.93 C48.0924,135.23 46.8924,134.93 46.0924,134.53 C43.1924,133.329 40.1924,132.43 37.2934,131.53 C40.7934,129.93 44.5924,128.03 47.4924,125.43 C50.0924,123.23 47.9924,121.43 45.2934,120.93 C44.4924,120.829 40.7934,120.43 40.5924,121.329 C40.4924,121.829 42.8924,121.73 43.1924,122.23 C44.2934,123.73 38.6924,127.23 37.3924,127.329 C37.1924,122.73 40.4924,119.63 43.4924,116.73 C46.9924,113.43 43.2934,112.43 39.8924,112.43 C37.9924,112.43 36.0924,112.53 34.8924,114.13 C34.3924,114.829 33.9924,116.23 33.2934,116.63 C32.4924,117.03 31.0924,116.53 30.6924,115.829 C29.8924,114.43 31.3924,113.03 32.1924,112.13 C32.9924,111.23 34.3924,108.829 35.4924,108.329 C36.1924,108.03 37.7934,108.53 38.4924,108.63 C41.2934,109.03 44.1924,109.63 46.8924,110.53 C49.4924,111.43 54.2934,113.23 55.1924,116.13 C55.8924,118.73 49.5924,122.329 49.8924,123.03 C50.4924,124.329 57.7934,122.329 58.8924,121.93 C61.3924,120.93 65.0924,118.329 64.1924,115.13 C62.6924,110.829 55.0924,109.03 51.4924,108.03" id="Fill-1" fill="#000000" mask="url(#mask-2)"></path>
            </g>
        </g>
    </g>
</svg>