<?xml version="1.0" encoding="utf-8"?>
<!-- Generator: Adobe Illustrator 21.0.0, SVG Export Plug-In . SVG Version: 6.00 Build 0)  -->
<svg version="1.1" id="Layer_1" xmlns="http://www.w3.org/2000/svg" xmlns:xlink="http://www.w3.org/1999/xlink" x="0px" y="0px"
	 viewBox="0 0 64.3 158.5" style="enable-background:new 0 0 64.3 158.5;" xml:space="preserve">
<path d="M51.6,108.3c-4.7-1.5-9.9-1.7-14.8-1.8c0.8-2.3,0.5-1.7,2.7-1.8c2.6-0.2,4.5-1.8,5.1-4.3c0.5-2.3-0.4-2.6-2.3-2.7
	c-1.1,0-4.2-0.2-4.3-1.8c0-2,10.2-4.2,11.5-4.5c1.1-0.2,3.7-0.5,4.2,1.1c0.6,2.1-5.1,5.6-6.3,6.4c3-0.4,6-1.3,8.6-2.7
	c2.1-1.2,6-3.8,5.4-6.7c-0.3-1.6-1.8-2.3-3.3-2.6c-2.7-0.5-7.8-0.3-10.5,1c0-2,0-3.9,0-5.9c0-2.4-0.4-5.3,0-7.6
	c0.3-1.9,2.1-3.4,0.8-5.4c-1.5-2.4-4.8-3.8-7.3-2.5c-1.2,0.6-5.9,5.3-6.9,3.8c-1.1-1.7,1.7-7.3,2.5-8.5c1.5-2.4,3.2-2.6,5.8-2.7
	c2.4-0.1,3.9-1.4,3.7-3.8c-0.2-1.6-1-2.9-2.1-4c-0.3-0.3-2.4-1.9-2.7-1.6c-0.3,0.3,0.1,0.5,0.2,1c0.3,1.6,1,1.8-0.8,2.8
	c-1.7,0.9-3.7,1.2-5.1,2.5c-0.8-2.5,3-2.9,3.9-4.6c1.1-2.1-0.7-2.7-2.4-3.1c-0.8-0.2-3.7,0.1-2.6-1.6c0.4-0.6,2.1-0.9,2.7-1.1
	c3.4-1.4,6.8-4,10.3-4.7c3.6-0.7,1.9-2.6,0.2-4.6c-1.8-2.1-0.7-3.4,0.7-5.2c1.3-1.8,3.1-3.6,4.1-5.6c1.1-2.3-0.1-3.6-1.7-5.1
	c-1.9-1.7-3.3-3.2-5.7-1.1c-1.5,1.3-2.5,3.8-4.7,3.3c-2.5-0.5-0.7-1.9,0.4-3c1.5-1.6,3.4-3.3,4.7-5.1c1.7-2.4,2-9.9-1-11.7
	c-2.3-1.5-2.4,2.2-3.3,3.8c-1.5,2.5-3.9,4.4-6.1,6.2c-2.1,1.8-4,3.6-6.1,5.4c-1.2,1-2.3,2.1-3.5,3.1c-0.6,0.6-1.7,2.1-2.6,2.1
	c-1.7,0-1.7-3.4-1.3-4.5c0.4-1.3,2.5-2.2,3.6-3.1c2.4-1.9,6-4.1,7.5-6.8c1.4-2.4-1.3-3-3.1-3.9c-2.4-1.2-4.3-2.9-6.4-4.4
	c-1.9-1.4-5.4,0.9-6.3,2.9c-0.6,1.3,0.3,1.8,0.7,2.9c0.5,1.4,0.5,3.3,0.5,4.8c0,3.4-1.6,5.1-4.8,6.1c-0.9,0.3-1.7,0.4-2.6,0.1
	c-1.6-0.5-2.2-2.1-3.6-2.7C5.4,14,6.7,18,6.9,19c0.5,2,1.4,6.9,3.9,7.1c2.2,0.2,3.5-3.2,5.4-3.5c0.7-0.1,0.5-0.2,0.6,1
	c0,0.6,0.1,1.4-0.1,2c-0.3,1.1-1.4,2.5-2,3.5c-2.5,4.5-4.9,8.9-7.4,13.4c-1.6,2.8-3.5,5.6-4.7,8.6C1.4,54,4,55.2,4.5,57.8
	c0.4,2,1.6,4.8,3.1,2.2c2.3-4.1,4-8.8,6-13.1c0.3-0.6,0.7-2.3,1.3-2.7c-0.5,0.4-0.1,7.3-0.1,7.9c-0.1,5.7-0.3,11.4-0.4,17.1
	c-0.2,6.2-0.3,12.3-0.5,18.5c-0.1,2.2-0.1,4.4-0.2,6.6c0,1.1,0.2,2.7-0.1,3.7c-0.4,1.1-1.8,1.9-3.1,1.9C8.7,100,8.4,98.1,6.9,98
	c-1.2-0.1-2,1.2-2.5,2.2c-1.4,2.3-2.9,6.9-0.4,9.1c1.8,1.6,5.3-1.5,6.9-2.5c0.7-0.4,1.6-1.3,2.4-1.5c1.4-0.4,1-0.2,1.7,0.8
	c0.2,0.3,0.4,1,0.6,1.4c0.6,1.3,1.2,2.6,1.7,3.9c0.2,0.5,0.5,1.8,1,2.1c1,0.7,0.9-0.6,1-1.5c0.2-1.6,0.4-3.3,0.5-4.9
	c0.1-1-0.4-4,0.1-4.9c0.4-0.7,1.9-0.9,2.6-1.2c1.9-0.7,3.8-1.4,5.7-2.2c0.6-0.3,1.8-1.2,2.5-1.2c0.8,0,0.4-0.1,0.8,0.5
	c0.4,0.5,0.3,1.7,0.6,2.4c0.3,0.6,1,1.1,1.2,1.6c0.5,1.3-0.5,3.5-1.6,4.3c-0.9,0.7-2.2,0.5-3.4,0.5c-0.8,0-3.4-0.3-4,0.3
	c-1,1,5.3,0.7,6,1C30,108,20.3,120,19.6,120.9c-1.8,1.9-3.8,4.5-6.2,5.7c-3.7,1.9-0.3-5.2-1.2-6.3c0.1,0.2-4.9,6.7-5.2,7.1
	c-2.2,3.1-4.7,6.3-6.3,9.7c-1.1,2.4-0.9,6.8,2.6,7.2c3,0.3,4.7-3.8,6-5.8c4.4-6.3,10.2-11.9,15.6-17.4c0.5-0.5,1.5-1.9,1.4-0.2
	c-0.1,1.2-1.8,1.7-0.4,2.8c1.1,0.8,3.8,0.2,4.9,0.2c1.8-0.1,2.1-0.6,1.9,1.1c-0.2,1-0.4,1.8-0.4,2.8c0,1.4,0.4,1.6-0.8,2.2
	c-1,0.5-3.6,0.7-3.5-0.8c0-0.9,3.9-3.3,1.7-3.1c-0.8,0.1-2.4,1.5-3,1.9c-1.8,1.2-7,4.6-6.4,7.3c0.6,2.7,6,0.2,7.7-0.4
	c1-0.4,3-1.6,4-1.7c0.8,0,0.6,0,1.1,0.7c0.2,0.3,0.3,0.8,0.4,1.1c0.3,1.4,0.3,1.3-0.5,1.6c-0.7,0.3-1.8-0.2-2.6,0.1
	c-0.8,0.3-1.2,1.2-1.6,1.9c-0.9,1.4-1.8,2.8-2.8,4.1c-1.7,2.1-7.4,5.5-3.9,8.9c1.3,1.3,2.8-0.1,4.3,0.4c1.9,0.6,3.2,3.4,4.1,4.9
	c2.5,4.3,5.6-0.7,6.8-3c2.1-4.4,5.9-7.9,9.4-11.1c1.5-1.3,3.3-1.7,3.1-4c-0.1-0.9-0.4-1.9-1-2.6c-0.6-0.7-1.8-1-2.6-1.4
	c-2.9-1.2-5.9-2.1-8.8-3c3.5-1.6,7.3-3.5,10.2-6.1c2.6-2.2,0.5-4-2.2-4.5c-0.8-0.1-4.5-0.5-4.7,0.4c-0.1,0.5,2.3,0.4,2.6,0.9
	c1.1,1.5-4.5,5-5.8,5.1c-0.2-4.6,3.1-7.7,6.1-10.6c3.5-3.3-0.2-4.3-3.6-4.3c-1.9,0-3.8,0.1-5,1.7c-0.5,0.7-0.9,2.1-1.6,2.5
	c-0.8,0.4-2.2-0.1-2.6-0.8c-0.8-1.4,0.7-2.8,1.5-3.7c0.8-0.9,2.2-3.3,3.3-3.8c0.7-0.3,2.3,0.2,3,0.3c2.8,0.4,5.7,1,8.4,1.9
	c2.6,0.9,7.4,2.7,8.3,5.6c0.7,2.6-5.6,6.2-5.3,6.9c0.6,1.3,7.9-0.7,9-1.1c2.5-1,6.2-3.6,5.3-6.8C62.8,111.1,55.2,109.3,51.6,108.3z
	 M27,6.1c2.5,0.7-4,5.1-4.7,5.7C21.9,8.5,23.2,5.3,27,6.1z M34,142.2c0.2,1.8-3.3,3.3-2.4,4.7c0.9,1.4,3,0.6,3.8-0.1
	c1-0.8,1.9-2.3,2.5-3.4c0.9-1.6,0.4-6,2.9-5.3c3.5,1,1.4,3.6-0.1,5.3c-1.9,2-3.7,4.2-5.5,6.3c-2,2.5-3.8,3.3-6.8,1.2
	c-3.2-2.3-0.6-4,1.2-6.2c0.7-0.9,1.3-2.5,2.4-3C32.5,141.3,34.3,141,34,142.2z M36.1,76.1c1.2-1.6,5.1-7,6.5-3.3
	c0.4,1.2,0.5,2.7,0.6,4c0.2,1.7,0.3,3.4,0.4,5c0.1,1.7,0.7,4.7,0,6.2c-0.4,0.8-1,0.8-2.1,1c-0.3,0.1-2,0.6-2.1,0.5
	c-0.2-0.3,0.8-1.5,1-1.8c0.7-1.3,1.3-2.7,1.5-4.1c0.2-1.7,0-3.8-1.1-5.3c-0.7-0.9-1.6-1.5-2.7-1.8C37.4,76.4,36.1,76.7,36.1,76.1z
	 M44.2,25.1c2.2,0.1,0.5,3.2-0.1,4.2c-0.6,1.2-2.6,5.9-4.1,6.1c-1.2,0.1-1-3.6-0.9-4.6c0.1-1.2,0.3-1.4,1.2-2.4
	C41.3,27.2,42.7,25.4,44.2,25.1z M32.5,54.1c-0.1,0.9-0.6,5.4-2.5,3.8c-0.9-0.8,0.5-2.6,1-3.2C31.2,54.4,32.7,52.9,32.5,54.1z
	 M31,41.6c-3.5,0.8-10.4-0.7-7.3,4.8c1,1.8,2.2,3.4,4.3,2.6c1.2-0.5,4.7-3.7,3.5-0.7c-1.8,4.5-5.6,8-7.8,12.2
	c-1.1,2.1-0.7,3.9,1.2,5.4c1.7,1.4,3.6,0,5.1-1.2c-0.2,2.9-0.2,5.7-0.4,8.6c-0.1,1.8-0.2,3.7-0.3,5.5c-0.1,2.1-1,3.6-1.7,5.5
	c-0.4,1.1-0.8,2.2-0.8,3.3c0,1,0.3,1.9,0.8,2.8c0.4,0.6,1.4,1,1.1,1.8c-0.3,0.7-2.4,1-3,1.1c-2,0.4-3.9,1-5.8,1.9
	c-0.1-8.9-0.1-17.8-0.2-26.7c0-6.6-0.1-13.1-0.1-19.7c0-3.8-0.6-8.1-0.1-11.9c0.2-1.1,0.6-1.5,1.3-2.5c2.1-3,4.2-5.9,6.3-8.8
	c1.5-2,10-13.1,11.8-11.9c0.5,0.4-0.3,3-0.4,3.3c-0.2,0.7-0.3,1.8-0.8,2.4c-0.7,0.8-0.6,0.5-1.5,0.4c-1.4-0.2-2-0.4-3,1.2
	c-1.1,1.7-0.2,2.6,0.7,4.1c0.8,1.3,1.4,2.9,0.4,4.2c-0.9,1.2-2.4,1.8-3.1,0.3c-0.3-0.8,0.4-2-0.5-2.7c-1-0.7-1.9,0.6-2.5,1.3
	c-1.4,1.6-5.1,4.9-4.7,7.3c0.5,3,6.9,6.7,7.6,2.3c0.2-1.5-0.2-3,1.2-4.1c1.4-1.1,2.2-0.6,2.3,0.9C34.7,37.8,34.4,40.7,31,41.6z
	 M33.8,88.2c0-1.4-0.1-2.8-0.2-4.3c-0.1-1.3-0.7-2.8,0.8-2.8C38.7,81.1,38.1,88.1,33.8,88.2z"/>
</svg>
