<?xml version="1.0" encoding="utf-8"?>
<!-- Generator: Adobe Illustrator 25.2.0, SVG Export Plug-In . SVG Version: 6.00 Build 0)  -->
<svg version="1.1" id="Layer_1" xmlns="http://www.w3.org/2000/svg" xmlns:xlink="http://www.w3.org/1999/xlink" x="0px" y="0px"
	 viewBox="0 0 220.1 196.1" style="enable-background:new 0 0 220.1 196.1;" xml:space="preserve">
<style type="text/css">
	.st0{fill:url(#SVGID_1_);}
	.st1{fill:url(#SVGID_2_);}
</style>
<g>
	<linearGradient id="SVGID_1_" gradientUnits="userSpaceOnUse" x1="130.6175" y1="95.7729" x2="219.914" y2="95.7729">
		<stop  offset="0" style="stop-color:#0000FF"/>
		<stop  offset="8.064204e-02" style="stop-color:#0033FF"/>
		<stop  offset="0.168" style="stop-color:#0062FF"/>
		<stop  offset="0.2607" style="stop-color:#008CFF"/>
		<stop  offset="0.3571" style="stop-color:#00B0FF"/>
		<stop  offset="0.4583" style="stop-color:#00CDFF"/>
		<stop  offset="0.5658" style="stop-color:#00E3FF"/>
		<stop  offset="0.6826" style="stop-color:#00F3FF"/>
		<stop  offset="0.8155" style="stop-color:#00FCFF"/>
		<stop  offset="1" style="stop-color:#00FFFF"/>
	</linearGradient>
	<path class="st0" d="M219.9,126.8h-2.4V124H217v-6h-2.5v-4.9h2.5v-12.7h-1.1v-4h-1.5v-7h-1.7v-4.9h-4.3v-5.3h-0.3v-3.4h-1.8V64.9
		h-2.5v-6.5h-1.9v-1.8h5.8v-5.3h2V38.5h-0.5v-7.4h-0.6v-5.3h-12.5V28h-1.3v-1.2h-12.5v0.6h-1.3v-3.8h1.8v-2.3h1.9v3.2h12.5v-7.4h1
		v3.5h12.5V8h-4.5V4.6h-5.9V2.3h-12.5v1.5h-6.7v4.8h-5.1V11h-5.7v0.9h-5.2v4.3h-2.9v7.5h-7.8v3.1h-5v2.5h-2.4v9.6h-3.8V47h-4.2v10.6
		h-3V66h-4.6v11.1h-0.9v12.7h3V96h-3v12.7h3v5H133v12.7h0.7v5v4.6v8.2h3.2v10.7h1.9v8.4h6.7v8h3.2v9.9h2.9v8.1H164v-3.8h3.9v2.6
		h12.5v-12.7h-8.6v-2.6h-4.4v-8.7h-1v-6.6h-0.2v-0.2V156h1.4v2.1h2.2v5.3h4.3v2.8h5.5v7.5h12.5v-4.4h6.2v-10.3h1.8v-7.7h9.5V147h2.1
		v-2.3h4.2v-5.1h4V126.8z"/>
	<g>
		<linearGradient id="SVGID_2_" gradientUnits="userSpaceOnUse" x1="0" y1="103.5011" x2="82.9075" y2="103.5011">
			<stop  offset="0" style="stop-color:#00FFFF"/>
			<stop  offset="0.1556" style="stop-color:#00FCFF"/>
			<stop  offset="0.2852" style="stop-color:#00F1FF"/>
			<stop  offset="0.4055" style="stop-color:#00E0FF"/>
			<stop  offset="0.5201" style="stop-color:#00C8FF"/>
			<stop  offset="0.6309" style="stop-color:#00A8FF"/>
			<stop  offset="0.7387" style="stop-color:#0081FF"/>
			<stop  offset="0.844" style="stop-color:#0053FF"/>
			<stop  offset="0.9448" style="stop-color:#0020FF"/>
			<stop  offset="1" style="stop-color:#0000FF"/>
		</linearGradient>
		<path class="st1" d="M81.5,130.1l0-20.1V95.4l-2.2-14.3l-4.9,2.8l-0.4-1l0.3-0.8l4-9.8l-0.2-7.9h1.1V51.7h-1.5l0-1h0.9V38h-3.5
			l-4.7-15.7l-3.6,0.4v-2.3h-8.4v-8.5H45.9v2.5h-2.7V11H30.9v-0.1H18.4v4.4h-3v3.4h-2.4v2.4h-1.2v1.2H9.9v2.1H6.2v12.7H8v8.7h2.6
			v6.1h4.1v10.2h3.7v9.6h2v8.8h3l0.2,5.6l-4.4,11.5l-0.1,14.9l0.1,18.6c0,0-0.3,0.9-0.7,2.3H7.6v5.1H3.8v4.3H1.8v10.5H0v12.7h2.7
			v6.2H1.4V185h3.2v4h2.1v7.1h12.5V194h8.1v-3.4h10.4v-6.2c2.1,0,4.5,0.1,6.7,0.1v3.9h3.9v3.5h5.3v3.8H66v-5h1.8v-6.7H73v-7.1h7.7
			v-8.1h2.2V156h-3.2L81.5,130.1z"/>
	</g>
	<path d="M182.1,2.2V0H176v2.2h-4.9v4.3h-4.2v2.1h-4.4V6.6h-6.1v8.7h-3v4.3h-3v4.8h-3v5.7h-3v4.3h-4.9v5h-3v2.3h-2.5v4.9h-3V51h-3
		v4.8h-0.6v0.9h-3v3.5h-1.5v4.1H121v4.6h-2.4v5.9H117v6.1v2.5v3.8h-1.4h-2.1v-0.8h-1.1v-4.6h1.5v-8.7h-3v-2h-6.1v3h-2.4v8.7h2.4v3.6
		h-1.3v1.9h-4.4v2.5h-2.1v-5.6h-3V84h-2.1v-7.2h-1v-8h-2.1V49.3h-3v-8.6h-7.2v-8.5h-1.2v-3.9h3v-8.7h-6.1v-4.3h-6.1V13h-5.3V8.7
		h-6.1V4.3h-6.1v2.2h-1.5V4.3h-4.2V0h-6.1v4.3h-3.7v2.2h-1.2h-0.7V4.3h-6.1v4.3h-4.3v8.7h14.6v-2.1h8.7h2.4h2.1v6.4h3V26h6.1v-2.1
		H62v6.1h6.1v7.3h4.1v8.7h3v14.8h-1v13.4h-4.3v4.3h-1.8v3.3h-3v8.7H68v1.1h3v3.3h5.6v4.4h3.2v7.7h-1.5v17.3v11.5h-1.7V165h0.9v2.5
		h-2.3v5h-2.3v6.2H71v3.3h-4.9v3.5h-1.5v-2.2h-6.1v8.7H62v2.2h6.1v-3.5h4.1v-3.3h4.9v-3.5h4.4v-2.7h3.2h2h4.1v-4.3h3v-8.7h-2.1v-6
		h-1v-6h-1.2v-6.8h-0.9v-10.1h0.9v-5.2h1.2v-5.9h1v-5.8h3v-1.9h2.6V118h3v-3.9h1.5v-2.3h1.9v6.1h0.8v1.4h-1.6v4.3v4.3v4.3h1.6v0.5
		h0.9v1.6h0.6v4h6.1v-8.7h-0.6v-1.7h0.7v-5.7h0.6v-4.2h0.9v-6.3h2.5v4.3h4.9v24.8h1.7v6.2h2.5v2h-0.9v8.7h2.4v4.3h0.6v8.7h2.4v4.3
		h1.6v1.6h4.6v2.7h2.6v6h3.5v2.7h4.9v1.6h3v3.5h6.1v-1.6h6.1V183h-4.7v-6.2h-3.1V173h-3v-2v-2.8v-5.9h-7.2v-6.2h-3v-6.5h-3.1v-4.9
		h-0.9v-4.1h-1.4v-38.5h-2.1v-3h0.9v-4.3h5.1v-8.7h-5.1V84h-1.6v-3.5h-0.4v-3.8h3.6v-6.2h2.1v-8.7h-0.7v-2.2h3v-4.9v-2.3h3v-3.2h3
		v-3.2h2.3v-7.3h1.1V33h3v-4.8h3h6.1v-6.6h1.3v-2.1h4v-4.3h5.1v-4.3h4.2V8.7h3.9v2.2h6.1V2.2H182.1z M57.1,17.4L57.1,17.4l-0.4,0v0
		H57.1z M74.2,86.1L74.2,86.1l-0.1-3.3h0.1V86.1z"/>
</g>
</svg>
